<?xml version="1.0" standalone="no"?>
<!DOCTYPE svg PUBLIC "-//W3C//DTD SVG 20010904//EN"
 "http://www.w3.org/TR/2001/REC-SVG-20010904/DTD/svg10.dtd">
<svg version="1.0" xmlns="http://www.w3.org/2000/svg"
 width="200.000000pt" height="200.000000pt" viewBox="0 0 200.000000 200.000000"
 preserveAspectRatio="xMidYMid meet">
<metadata>
Created by potrace 1.11, written by Peter Selinger 2001-2013
</metadata>
<g transform="translate(0.000000,200.000000) scale(0.100000,-0.100000)"
fill="#000000" stroke="none">
<path d="M814 1880 c-341 -76 -607 -337 -691 -677 -25 -103 -22 -323 6 -428
82 -304 310 -542 606 -634 102 -32 135 -36 285 -35 115 1 148 5 223 28 251 75
447 237 560 461 33 66 60 140 73 196 3 13 8 38 12 54 3 17 6 93 6 170 -1 121
-5 152 -28 230 -100 331 -362 571 -701 641 -75 15 -271 12 -351 -6z"/>
</g>
</svg>
